<svg id="charity" xmlns="http://www.w3.org/2000/svg" width="84" height="71.08" viewBox="0 0 84 71.08">
  <g id="Group_12" data-name="Group 12" transform="translate(20.091 0)">
    <g id="Group_11" data-name="Group 11">
      <path id="Path_7" data-name="Path 7" d="M139.533,35.136c-4.252-4.006-11.537-4.92-18.128,1.67-6.581-6.584-13.876-5.676-18.128-1.674a12.006,12.006,0,0,0-.265,17.236l18.393,18.4L139.8,52.372A12.006,12.006,0,0,0,139.533,35.136Zm-2.019,14.949L121.406,66.2,105.3,50.088a8.768,8.768,0,0,1,.2-12.6,8.415,8.415,0,0,1,5.822-2.262c4.626,0,6.707,2.766,10.09,6.148,3.292-3.292,5.412-6.148,10.09-6.148a8.441,8.441,0,0,1,5.825,2.258A8.768,8.768,0,0,1,137.514,50.084Z" transform="translate(-99.496 -31.992)" fill="#d51b5a"/>
    </g>
  </g>
  <g id="Group_14" data-name="Group 14" transform="translate(48.462 3.234)">
    <g id="Group_13" data-name="Group 13">
      <path id="Path_8" data-name="Path 8" d="M270.017,48.009a5.5,5.5,0,0,0-5.492,4.962l-2.045,20.2a5.187,5.187,0,0,0-2.591,1.389L243.57,89.747A10.972,10.972,0,0,0,240,97.76v18.1h19.385v-8.516a4.891,4.891,0,0,1,1.554-3.544L273.2,91.421a8.036,8.036,0,0,0,2.339-5.686V53.53A5.529,5.529,0,0,0,270.017,48.009Zm2.291,37.726A4.823,4.823,0,0,1,270.9,89.15L258.68,101.485a8.09,8.09,0,0,0-2.526,5.854v5.286H243.231V97.779a7.719,7.719,0,0,1,2.53-5.647l16.37-15.246a2.137,2.137,0,0,1,2.969,0,2.093,2.093,0,0,1,.617,1.486,2.067,2.067,0,0,1-.562,1.431l-12.6,11.43,2.171,2.391,12.661-11.485a5.327,5.327,0,0,0,0-7.537,5.155,5.155,0,0,0-1.69-1.14l2.039-20.16a2.292,2.292,0,0,1,4.572.229Z" transform="translate(-240 -48.009)" fill="#d51b5a"/>
    </g>
  </g>
  <g id="Group_16" data-name="Group 16" transform="translate(0 3.234)">
    <g id="Group_15" data-name="Group 15">
      <path id="Path_9" data-name="Path 9" d="M31.968,89.747,15.65,74.556a5.162,5.162,0,0,0-2.591-1.389l-2.045-20.2A5.521,5.521,0,0,0,0,53.53v32.2a8.023,8.023,0,0,0,2.339,5.683L14.6,103.791a4.9,4.9,0,0,1,1.554,3.547v8.516H35.538V97.76A10.965,10.965,0,0,0,31.968,89.747Zm.339,22.877H19.385v-5.286a8.1,8.1,0,0,0-2.526-5.854L4.636,89.15a4.823,4.823,0,0,1-1.405-3.415V53.53A2.292,2.292,0,0,1,7.8,53.295l2.039,20.16a5.329,5.329,0,0,0-1.686,8.678L20.816,93.618l2.171-2.391L10.384,79.8a2.047,2.047,0,0,1-.562-1.431,2.087,2.087,0,0,1,.617-1.486,2.137,2.137,0,0,1,2.969,0l16.37,15.246a7.718,7.718,0,0,1,2.53,5.647v14.852Z" transform="translate(0 -48.009)" fill="#d51b5a"/>
    </g>
  </g>
</svg>
