<svg xmlns="http://www.w3.org/2000/svg" width="71.517" height="75.121" viewBox="0 0 71.517 75.121">
  <g id="food-donation" transform="translate(-12.283)">
    <g id="Group_18" data-name="Group 18" transform="translate(12.283 0)">
      <g id="Group_17" data-name="Group 17">
        <path id="Path_10" data-name="Path 10" d="M115.919,122.318a1.467,1.467,0,0,0-.609-2.87l-4.112.873a1.467,1.467,0,1,0,.609,2.87Z" transform="translate(-95.693 -101.895)" fill="#f89d20"/>
        <path id="Path_11" data-name="Path 11" d="M125.866,168.792l-4.112.873a1.467,1.467,0,1,0,.609,2.87l4.112-.873a1.467,1.467,0,1,0-.609-2.87Z" transform="translate(-104.7 -143.999)" fill="#f89d20"/>
        <path id="Path_12" data-name="Path 12" d="M83.682,46.474,78.1,33.422l-.011-.028a1.253,1.253,0,0,0-.556-.657l-.115-.064v-7.6a20.09,20.09,0,0,0-2.366-9.44L71.968,9.864a1.468,1.468,0,0,0,.855-1.334V1.467A1.467,1.467,0,0,0,71.356,0H60.026a1.467,1.467,0,0,0-1.467,1.467V8.53a1.467,1.467,0,0,0,.855,1.334l-3.082,5.765q-.342.64-.636,1.3a11.413,11.413,0,0,0-4.675-.969,13.016,13.016,0,0,0-10.039,4.721L39.09,11.868A10.329,10.329,0,0,0,26.858,3.945l-.019,0A10.3,10.3,0,0,0,18.9,16.175L22.39,32.506H19.344a1.467,1.467,0,0,0-1.358.914h0L12.4,46.474a1.468,1.468,0,0,0,.347,1.65,1.517,1.517,0,0,0,1.043.394h4.085V71.141A1.467,1.467,0,0,0,19.216,72.6l28.7,2.512.128.006.128-.006,28.7-2.512a1.467,1.467,0,0,0,1.339-1.462V48.518h4.085a1.517,1.517,0,0,0,1.043-.394,1.469,1.469,0,0,0,.347-1.65ZM61.493,2.934h8.4V7.063h-8.4ZM62.67,10h6.043l3.751,7.015a17.147,17.147,0,0,1,2.019,8.057v7.437H56.9V25.069a17.147,17.147,0,0,1,2.02-8.057ZM51.021,18.9a8.556,8.556,0,0,1,3.681.8,20.043,20.043,0,0,0-.736,5.369v7.437H41.593a9.914,9.914,0,0,1-.656-3.572A10.072,10.072,0,0,1,51.021,18.9ZM21.765,15.561A7.366,7.366,0,0,1,27.447,6.82l.019,0a7.391,7.391,0,0,1,8.755,5.668l2.574,11.992a12.99,12.99,0,0,0-.294,8.031H25.391ZM20.312,35.441H45.818L41.48,45.584H15.974Zm.5,13.078H42.448a1.467,1.467,0,0,0,1.349-.89l2.778-6.494V72.052L20.811,69.8Zm53.243-2.934a1.467,1.467,0,1,0,0,2.934h1.218V69.8L49.509,72.053V41.134l2.778,6.494a1.467,1.467,0,0,0,1.349.89h7.153a1.467,1.467,0,1,0,0-2.934H54.6L50.265,35.44H75.771L80.11,45.584H74.054Z" transform="translate(-12.283 0)" fill="#f89d20"/>
        <path id="Path_13" data-name="Path 13" d="M380.56,310.953a1.468,1.468,0,1,0,.54,1.781A1.483,1.483,0,0,0,380.56,310.953Z" transform="translate(-324.581 -265.122)" fill="#f89d20"/>
      </g>
    </g>
  </g>
</svg>
