<svg xmlns="http://www.w3.org/2000/svg" width="89" height="75.259" viewBox="0 0 89 75.259">
  <g id="heartbeat" transform="translate(0.001 -39.525)">
    <g id="Group_10" data-name="Group 10" transform="translate(-0.001 39.525)">
      <g id="Group_9" data-name="Group 9">
        <g id="Group_8" data-name="Group 8">
          <path id="Path_4" data-name="Path 4" d="M2.484,128.081a1.737,1.737,0,1,0,.664-2.125,1.75,1.75,0,0,0-.664,2.125Z" transform="translate(-1.945 -110.705)" fill="#f89d20"/>
          <path id="Path_5" data-name="Path 5" d="M72.149,70.222q.256-.659.47-1.312a24.882,24.882,0,0,0,1.2-9.1,21.148,21.148,0,0,0-6.9-14.326,20.953,20.953,0,0,0-14.035-5.962c-7.29,0-12.988,4.07-15.735,6.5a.536.536,0,0,1-.708.009c-2.848-2.429-8.671-6.5-15.677-6.5-5.789,0-11.952,3.124-16.083,8.151a1.738,1.738,0,0,0,2.686,2.207C10.857,45.639,15.99,43,20.766,43c5.891,0,10.937,3.554,13.421,5.673a4.036,4.036,0,0,0,5.266-.047C41.831,46.526,46.741,43,52.886,43c7.857,0,16.993,7.26,17.458,16.977a21.471,21.471,0,0,1-1.03,7.849c-.2.6-.415,1.184-.666,1.778q-1.047-.1-2.121-.1A22.581,22.581,0,0,0,44.057,92.145q0,.885.067,1.755c-1.72,1.4-3.117,2.55-4.285,3.539a4.694,4.694,0,0,1-6.086,0c-1.577-1.336-3.628-3.007-5.8-4.777C20.117,86.275,9.384,77.529,6.8,73.139a24.225,24.225,0,0,1-3.194-8.226c-.055-.315-.1-.636-.146-.952a1.738,1.738,0,0,0-3.448.447c.048.369.1.742.17,1.108A27.576,27.576,0,0,0,3.8,74.9C6.7,79.83,17.269,88.438,25.758,95.356c2.158,1.758,4.2,3.419,5.748,4.734a8.16,8.16,0,0,0,10.58,0c.781-.661,1.67-1.4,2.7-2.239A22.5,22.5,0,1,0,72.149,70.222Zm-5.621,41.085A19.163,19.163,0,1,1,85.523,92.145,19.1,19.1,0,0,1,66.528,111.307Z" transform="translate(0.001 -39.525)" fill="#f89d20"/>
          <path id="Path_6" data-name="Path 6" d="M333.185,277.97H330.8v-2.425a3.863,3.863,0,0,0-3.85-3.867h-4.174a3.863,3.863,0,0,0-3.85,3.867v2.425h-2.389a3.863,3.863,0,0,0-3.85,3.867v4.211a3.863,3.863,0,0,0,3.85,3.867h2.389v2.425a3.863,3.863,0,0,0,3.85,3.867h4.174a3.863,3.863,0,0,0,3.85-3.867v-2.425h2.389a3.863,3.863,0,0,0,3.85-3.867v-4.211A3.863,3.863,0,0,0,333.185,277.97Zm.374,8.078a.383.383,0,0,1-.374.391h-4.127a1.738,1.738,0,0,0-1.738,1.738v4.164a.383.383,0,0,1-.374.391h-4.174a.383.383,0,0,1-.374-.391v-4.164a1.738,1.738,0,0,0-1.738-1.738h-4.127a.383.383,0,0,1-.374-.391v-4.211a.383.383,0,0,1,.374-.391h4.127a1.738,1.738,0,0,0,1.738-1.738v-4.164a.383.383,0,0,1,.374-.391h4.174a.383.383,0,0,1,.374.391v4.164a1.738,1.738,0,0,0,1.738,1.738h4.127a.383.383,0,0,1,.374.391Z" transform="translate(-258.33 -231.323)" fill="#f89d20"/>
        </g>
      </g>
    </g>
  </g>
</svg>
