<svg xmlns="http://www.w3.org/2000/svg" width="85" height="75.833" viewBox="0 0 85 75.833">
  <g id="house_1_" data-name="house (1)" transform="translate(0 -25.018)">
    <g id="Group_20" data-name="Group 20" transform="translate(0 25.018)">
      <g id="Group_19" data-name="Group 19">
        <path id="Path_14" data-name="Path 14" d="M84.355,60.1,68.672,46.711c.018-.092.037-.183.055-.293V28.9a1.953,1.953,0,0,0-1.887-1.924H58.082A1.906,1.906,0,0,0,56.25,28.9v7.255L43.7,25.458a1.832,1.832,0,0,0-2.382,0L.662,60.085a1.834,1.834,0,0,0,2.345,2.822l.037-.037,39.464-33.6L56.634,41.306l8.446,7.182,16.911,14.4a1.83,1.83,0,0,0,2.583-.2A1.849,1.849,0,0,0,84.355,60.1ZM65.044,43.614l-5.13-4.324V30.661h5.13Z" transform="translate(0 -25.018)" fill="#a8c042"/>
      </g>
    </g>
    <g id="Group_22" data-name="Group 22" transform="translate(8.1 35.535)">
      <g id="Group_21" data-name="Group 21">
        <path id="Path_15" data-name="Path 15" d="M112.384,110.688l-5.148-4.4L79.808,82.858a1.832,1.832,0,0,0-2.382,0L50,106.291l-5.148,4.4a1.83,1.83,0,0,0-.2,2.583,1.783,1.783,0,0,0,2.528.22l.018-.018,2.29-1.979v34.353a1.933,1.933,0,0,0,1.887,1.887h54.47a1.921,1.921,0,0,0,1.887-1.887V111.494l2.29,1.979a1.822,1.822,0,0,0,1.173.44,1.852,1.852,0,0,0,1.392-.641A1.811,1.811,0,0,0,112.384,110.688ZM85.946,144.051H71.288V124.264H85.946Zm3.664,0V122.487a1.824,1.824,0,0,0-1.759-1.887H69.383a1.824,1.824,0,0,0-1.759,1.887v21.564H53.15v-35.69L78.617,86.669l25.467,21.693v35.69Z" transform="translate(-44.208 -82.418)" fill="#a8c042"/>
      </g>
    </g>
  </g>
</svg>
