<svg xmlns="http://www.w3.org/2000/svg" width="105.539" height="80.753" viewBox="0 0 105.539 80.753">
  <g id="team_1_" data-name="team (1)" transform="translate(0 -60.121)">
    <g id="Group_44" data-name="Group 44" transform="translate(34.7 131.173)">
      <g id="Group_43" data-name="Group 43">
        <path id="Path_26" data-name="Path 26" d="M169.885,404.814a1.546,1.546,0,0,0-1.546,1.546v6.609a1.546,1.546,0,0,0,3.092,0V406.36A1.546,1.546,0,0,0,169.885,404.814Z" transform="translate(-168.339 -404.814)" fill="#a8c042"/>
      </g>
    </g>
    <g id="Group_46" data-name="Group 46" transform="translate(67.747 131.173)">
      <g id="Group_45" data-name="Group 45">
        <path id="Path_27" data-name="Path 27" d="M330.207,404.814a1.546,1.546,0,0,0-1.546,1.546v6.609a1.546,1.546,0,0,0,3.092,0V406.36A1.546,1.546,0,0,0,330.207,404.814Z" transform="translate(-328.661 -404.814)" fill="#a8c042"/>
      </g>
    </g>
    <g id="Group_48" data-name="Group 48" transform="translate(11.567 96.473)">
      <g id="Group_47" data-name="Group 47">
        <path id="Path_28" data-name="Path 28" d="M68.264,238.292c-3.59-1.795-10.321-1.816-10.606-1.816a1.546,1.546,0,0,0,0,3.092c1.739,0,6.786.271,9.223,1.489a1.546,1.546,0,1,0,1.383-2.765Z" transform="translate(-56.113 -236.476)" fill="#a8c042"/>
      </g>
    </g>
    <g id="Group_50" data-name="Group 50" transform="translate(6.609 127.868)">
      <g id="Group_49" data-name="Group 49" transform="translate(0 0)">
        <path id="Path_29" data-name="Path 29" d="M33.61,388.782a1.546,1.546,0,0,0-1.546,1.546v9.914a1.546,1.546,0,1,0,3.092,0v-9.914A1.546,1.546,0,0,0,33.61,388.782Z" transform="translate(-32.064 -388.782)" fill="#a8c042"/>
      </g>
    </g>
    <g id="Group_52" data-name="Group 52" transform="translate(0 60.121)">
      <g id="Group_51" data-name="Group 51">
        <path id="Path_30" data-name="Path 30" d="M101.944,122.095l-6.261-3.13a.106.106,0,0,1-.059-.1v-3.147a11.417,11.417,0,0,0,4.844-7.851,13.074,13.074,0,0,0-3.475-17.027,6.635,6.635,0,0,0,.283-1.914c0-4.041-3.659-7.329-8.155-7.329s-8.155,3.288-8.155,7.329a6.632,6.632,0,0,0,.282,1.915,13.179,13.179,0,0,0-4.291,5.592c-.383-3.766-.782-8.218-1.165-13.4-.505-6.842-2.966-12.621-7.116-16.71a22.113,22.113,0,0,0-15.907-6.2,22.112,22.112,0,0,0-15.907,6.2c-4.15,4.089-6.611,9.868-7.116,16.71-.134,1.817-.27,3.538-.407,5.177H14.765a9.819,9.819,0,0,0-9.808,9.808v.092a8.2,8.2,0,0,0,.861,3.647l.791,1.583v2.524a12.059,12.059,0,0,0,4.957,9.75v2.233a.648.648,0,0,1-.468.62l-6.382,1.824A6.53,6.53,0,0,0,0,126.544v12.784a1.546,1.546,0,1,0,3.092,0V126.544a3.426,3.426,0,0,1,2.474-3.28l6.383-1.824a3.673,3.673,0,0,0,.657-.261l3.918,3.918v14.231a1.546,1.546,0,1,0,3.092,0V125.1l3.945-3.945a8.464,8.464,0,0,0,1.438.519l1.567.448a8.158,8.158,0,0,0-3.433,6.644v10.565a1.546,1.546,0,1,0,3.092,0V128.763a5.066,5.066,0,0,1,3.018-4.632l8.839-3.9a16.422,16.422,0,0,0,29.378,0l8.836,3.9a5.066,5.066,0,0,1,3.018,4.632v10.565a1.546,1.546,0,1,0,3.092,0V128.763a8.153,8.153,0,0,0-1.952-5.289l2.393-1.2,1.8,1.707a6.5,6.5,0,0,0,8.959,0l1.8-1.707,5.164,2.582a3.392,3.392,0,0,1,1.886,3.051v11.417a1.546,1.546,0,0,0,3.092,0V127.911A6.469,6.469,0,0,0,101.944,122.095Zm-12.822-37.4c2.792,0,5.063,1.9,5.063,4.237,0,.1-.008.195-.016.292a13.1,13.1,0,0,0-10.095,0c-.008-.1-.016-.194-.016-.292C84.058,86.595,86.33,84.694,89.122,84.694ZM18.07,122.271l-3.523-3.523a3.7,3.7,0,0,0,.112-.9V117.2a10.83,10.83,0,0,0,3.06.54c.119,0,.237.005.356.005a11.481,11.481,0,0,0,3.406-.515v.621a4.248,4.248,0,0,0,.1.918Zm-.259-7.626a8.65,8.65,0,0,1-8.11-8.78v-2.889a1.545,1.545,0,0,0-.163-.691l-.955-1.909a5.092,5.092,0,0,1-.534-2.265v-.092A6.724,6.724,0,0,1,14.765,91.3H28.091v6.418a6.748,6.748,0,0,1-.709,3l-.78,1.56a1.546,1.546,0,0,0-.163.691v3.3a8.369,8.369,0,0,1-8.627,8.364Zm12.921,5.448-4.884-1.4c-1.276-.364-1.276-.507-1.276-.851v-2.13a11.417,11.417,0,0,0,2.352-2.162,3.17,3.17,0,0,0,1.121,1.262,34.138,34.138,0,0,0,7.017,3.363Zm22.037,6.122a13.312,13.312,0,0,1-11.857-7.238l2.25-.994a4.853,4.853,0,0,0,2.891-4.437v-3.71a18.063,18.063,0,0,0,13.432,0v3.71a4.853,4.853,0,0,0,2.891,4.437l2.25.994A13.279,13.279,0,0,1,52.77,126.216Zm13.406-9.935-2.549-1.126a1.76,1.76,0,0,1-1.048-1.609v-5.315a18.07,18.07,0,0,0,8.262-15.169v-2.9a6.448,6.448,0,0,0-2.2-4.876c-3.106-2.7-10.138-7.416-22.328-8.635a1.546,1.546,0,1,0-.308,3.077c11.338,1.134,17.777,5.431,20.606,7.892a3.357,3.357,0,0,1,1.135,2.543v2.9a14.978,14.978,0,0,1-29.955,0V91.769a1.684,1.684,0,0,1,.881-1.456,12.238,12.238,0,0,0,5.649-6.676,1.546,1.546,0,1,0-2.933-.978,9.194,9.194,0,0,1-4.259,4.974,4.805,4.805,0,0,0-2.43,4.136v1.293a18.069,18.069,0,0,0,8.262,15.169v5.315a1.76,1.76,0,0,1-1.048,1.609l-2.55,1.126a34.152,34.152,0,0,1-9.638-4.059.076.076,0,0,1-.038-.089c.539-3.188,1.925-12.382,3.142-28.871.449-6.084,2.594-11.18,6.2-14.735A19.085,19.085,0,0,1,52.77,63.213a19.085,19.085,0,0,1,13.736,5.313c3.609,3.556,5.754,8.651,6.2,14.735,1.217,16.489,2.6,25.684,3.142,28.871a.076.076,0,0,1-.038.09A34.162,34.162,0,0,1,66.175,116.281Zm16.444,2.588a.106.106,0,0,1-.059.1l-4.844,2.422c-.058-.027-.113-.057-.171-.083l-7.068-3.122a34.144,34.144,0,0,0,7.017-3.363,3.178,3.178,0,0,0,1.406-3.2l-.036-.218a11.436,11.436,0,0,0,3.756,4.324Zm8.852,2.874a3.409,3.409,0,0,1-4.7,0l-1.437-1.365a3.2,3.2,0,0,0,.376-1.509v-1.645a11.506,11.506,0,0,0,6.822,0v1.645a3.2,3.2,0,0,0,.376,1.51Zm-2.349-7.095a8.347,8.347,0,0,1-8.316-7.456,1.547,1.547,0,0,0-.22-.643,10.021,10.021,0,1,1,18.048-2.1c-4.39-4.46-12.112-6.207-12.484-6.289a1.546,1.546,0,0,0-1.879,1.51,3.78,3.78,0,0,1-1.2,2.212,1.546,1.546,0,1,0,2.186,2.186,7.48,7.48,0,0,0,1.68-2.5c2.6.773,8,2.724,10.424,6.15A8.346,8.346,0,0,1,89.122,114.649Z" transform="translate(0 -60.121)" fill="#a8c042"/>
      </g>
    </g>
    <g id="Group_54" data-name="Group 54" transform="translate(95.838 129.911)">
      <g id="Group_53" data-name="Group 53" transform="translate(0 0)">
        <path id="Path_31" data-name="Path 31" d="M466.482,398.692a1.546,1.546,0,0,0-1.546,1.546v7.872a1.546,1.546,0,0,0,3.092,0v-7.872A1.546,1.546,0,0,0,466.482,398.692Z" transform="translate(-464.936 -398.692)" fill="#a8c042"/>
      </g>
    </g>
  </g>
</svg>
