<svg xmlns="http://www.w3.org/2000/svg" width="89" height="86.033" viewBox="0 0 89 86.033">
  <g id="Group_74" data-name="Group 74" transform="translate(-1482 -7176.667)">
    <g id="food-donation" transform="translate(1548.298 7222.719)">
      <g id="Group_18" data-name="Group 18" transform="translate(0 0)">
        <g id="Group_17" data-name="Group 17" transform="translate(0)">
          <path id="Path_13" data-name="Path 13" d="M381.1,311.011a1.812,1.812,0,1,0,.667,2.2,1.831,1.831,0,0,0-.667-2.2Z" transform="translate(-378.28 -310.71)" fill="#d51b5a"/>
        </g>
      </g>
    </g>
    <g id="website" transform="translate(1482 7176.667)">
      <g id="Group_24" data-name="Group 24" transform="translate(0 0)">
        <g id="Group_23" data-name="Group 23">
          <path id="Path_16" data-name="Path 16" d="M83.065,8.533H5.935A5.942,5.942,0,0,0,0,14.468V63.416A1.484,1.484,0,0,0,1.483,64.9H87.517A1.484,1.484,0,0,0,89,63.416V14.468A5.942,5.942,0,0,0,83.065,8.533Zm2.968,53.4H2.967V14.468A2.971,2.971,0,0,1,5.935,11.5h77.13a2.971,2.971,0,0,1,2.968,2.968Z" transform="translate(0 -8.533)" fill="#d51b5a"/>
        </g>
      </g>
      <g id="Group_26" data-name="Group 26" transform="translate(0 53.4)">
        <g id="Group_25" data-name="Group 25">
          <path id="Path_17" data-name="Path 17" d="M87.517,315.733H1.483A1.484,1.484,0,0,0,0,317.216v7.415a5.942,5.942,0,0,0,5.935,5.935h77.13A5.942,5.942,0,0,0,89,324.631v-7.415A1.484,1.484,0,0,0,87.517,315.733Zm-1.483,8.9a2.971,2.971,0,0,1-2.968,2.968H5.935a2.971,2.971,0,0,1-2.968-2.968V318.7H86.033v5.932Z" transform="translate(0 -315.733)" fill="#d51b5a"/>
        </g>
      </g>
      <g id="Group_28" data-name="Group 28" transform="translate(38.567 59.333)">
        <g id="Group_27" data-name="Group 27">
          <path id="Path_18" data-name="Path 18" d="M232.25,349.867h-8.9a1.483,1.483,0,0,0,0,2.967h8.9a1.483,1.483,0,1,0,0-2.967Z" transform="translate(-221.867 -349.867)" fill="#d51b5a"/>
        </g>
      </g>
      <g id="Group_30" data-name="Group 30" transform="translate(5.933 5.933)">
        <g id="Group_29" data-name="Group 29">
          <path id="Path_19" data-name="Path 19" d="M109.784,42.667H35.617a1.484,1.484,0,0,0-1.483,1.483V91.617A1.484,1.484,0,0,0,35.617,93.1h74.167a1.484,1.484,0,0,0,1.483-1.483V44.15A1.484,1.484,0,0,0,109.784,42.667ZM108.3,90.134H37.1v-44.5h71.2Z" transform="translate(-34.134 -42.667)" fill="#d51b5a"/>
        </g>
      </g>
      <g id="Group_32" data-name="Group 32" transform="translate(20.767 77.133)">
        <g id="Group_31" data-name="Group 31">
          <path id="Path_20" data-name="Path 20" d="M162.484,452.267H123.917a4.45,4.45,0,1,0,0,8.9h38.567a4.45,4.45,0,1,0,0-8.9Zm0,5.933H123.917a1.483,1.483,0,1,1,0-2.967h38.567a1.483,1.483,0,1,1,0,2.967Z" transform="translate(-119.467 -452.267)" fill="#d51b5a"/>
        </g>
      </g>
      <g id="Group_34" data-name="Group 34" transform="translate(26.7 65.267)">
        <g id="Group_33" data-name="Group 33">
          <path id="Path_21" data-name="Path 21" d="M187.718,395.868c-4.922,0-7.417-3.493-7.417-10.383A1.484,1.484,0,0,0,178.818,384H163.984a1.484,1.484,0,0,0-1.483,1.483c0,6.89-2.495,10.383-7.417,10.383a1.483,1.483,0,0,0,0,2.967h32.633a1.483,1.483,0,0,0,0-2.967Zm-25.408,0c1.826-2.023,2.9-5.036,3.118-8.9h11.948c.215,3.864,1.29,6.877,3.118,8.9Z" transform="translate(-153.601 -384.001)" fill="#d51b5a"/>
        </g>
      </g>
      <g id="Group_36" data-name="Group 36" transform="translate(51.927 31.15)">
        <g id="Group_35" data-name="Group 35">
          <path id="Path_22" data-name="Path 22" d="M317.676,200.286l-3.581-3.581,1.992-1.992a1.483,1.483,0,0,0-.622-2.47l-14.833-4.45a1.484,1.484,0,0,0-1.847,1.847l4.45,14.833a1.483,1.483,0,0,0,2.47.623l2.1-2.1,3.581,3.582a1.483,1.483,0,0,0,2.1,0l4.195-4.2A1.482,1.482,0,0,0,317.676,200.286Zm-5.244,3.148-3.26-3.262a1.939,1.939,0,0,0-2.738,0l-1.071,1.071-2.944-9.815,9.815,2.944-1.148,1.148a1.681,1.681,0,0,0,0,2.375l3.441,3.441Z" transform="translate(-298.723 -187.731)" fill="#d51b5a"/>
        </g>
      </g>
      <g id="Group_38" data-name="Group 38" transform="translate(19.283 11.867)">
        <g id="Group_37" data-name="Group 37">
          <path id="Path_23" data-name="Path 23" d="M153.951,76.8H112.417a1.484,1.484,0,0,0-1.483,1.483V85.7a1.484,1.484,0,0,0,1.483,1.483h41.533a1.484,1.484,0,0,0,1.483-1.483V78.283A1.484,1.484,0,0,0,153.951,76.8Zm-1.483,7.417H113.9v-4.45h38.567Z" transform="translate(-110.934 -76.8)" fill="#d51b5a"/>
        </g>
      </g>
      <g id="Group_40" data-name="Group 40" transform="translate(25.217 28.183)">
        <g id="Group_39" data-name="Group 39">
          <path id="Path_24" data-name="Path 24" d="M158.417,170.667H146.55a1.484,1.484,0,0,0-1.483,1.483v5.933a1.484,1.484,0,0,0,1.483,1.483h11.867a1.484,1.484,0,0,0,1.483-1.483V172.15A1.484,1.484,0,0,0,158.417,170.667Zm-1.483,5.933h-8.9v-2.967h8.9Z" transform="translate(-145.067 -170.667)" fill="#d51b5a"/>
        </g>
      </g>
      <g id="Group_42" data-name="Group 42" transform="translate(19.283 11.867)">
        <g id="Group_41" data-name="Group 41">
          <path id="Path_25" data-name="Path 25" d="M153.951,76.8H112.417a1.484,1.484,0,0,0-1.483,1.483v28.183a1.484,1.484,0,0,0,1.483,1.483H147.73a1.484,1.484,0,0,0,1.421-1.911l-1.878-6.261,6.252,1.876a1.484,1.484,0,0,0,1.909-1.421V78.283A1.484,1.484,0,0,0,153.951,76.8Zm-1.483,21.44-6.982-2.094a1.484,1.484,0,0,0-1.847,1.848l2.1,6.989H113.9V79.767h38.567Z" transform="translate(-110.934 -76.8)" fill="#d51b5a"/>
        </g>
      </g>
    </g>
  </g>
</svg>
